<svg xmlns="http://www.w3.org/2000/svg" width="40" height="40" viewBox="0 0 40 40">
  <g id="그룹_5759" data-name="그룹 5759" transform="translate(-2337 185)">
    <rect id="사각형_3954" data-name="사각형 3954" width="40" height="40" transform="translate(2337 -185)" fill="none"/>
    <g id="그룹_5752" data-name="그룹 5752" transform="translate(472.22 -564.236)">
      <rect id="사각형_1430" data-name="사각형 1430" width="30" height="30" transform="translate(1869.78 384.236)" fill="rgba(255,255,255,0)"/>
      <path id="패스_12624-2" data-name="패스 12624-2" d="M1890.435,402.223v4.563a.479.479,0,0,1-.472.484h-9l-1.154,1.154a.472.472,0,0,1-.653,0l-1.147-1.154h-1.042a1.937,1.937,0,0,1-1.939-1.935v-1.649a1.944,1.944,0,0,1,1.939-1.946h.815l1.271,1.264a.581.581,0,0,0,.434.176.617.617,0,0,0,.44-.176l1.257-1.264h8.771A.483.483,0,0,1,1890.435,402.223Z" fill="#de092d"/>
      <path id="패스_12625-2" data-name="패스 12625-2" d="M1892.771,396.223v4.561a.478.478,0,0,1-.471.485h-11.334l-1.154,1.153a.47.47,0,0,1-.653,0l-1.147-1.153h-1.042a1.939,1.939,0,0,1-1.939-1.937v-1.648a1.945,1.945,0,0,1,1.939-1.947h.815l1.271,1.263a.579.579,0,0,0,.434.176.613.613,0,0,0,.44-.176l1.257-1.263h11.106A.483.483,0,0,1,1892.771,396.223Z" fill="#6341af"/>
      <path id="패스_12626-2" data-name="패스 12626-2" d="M1894.931,390.228v4.555a.474.474,0,0,1-.464.484h-13.5l-1.154,1.153a.456.456,0,0,1-.645.008l-.008-.008-1.147-1.153h-1.042a1.937,1.937,0,0,1-1.939-1.935v-1.649a1.944,1.944,0,0,1,1.939-1.947h.815l1.271,1.264a.579.579,0,0,0,.434.176.613.613,0,0,0,.44-.176l1.257-1.264h13.266a.48.48,0,0,1,.478.482Z" fill="#15923b"/>
      <rect id="사각형_1431" data-name="사각형 1431" width="11.943" height="3.929" rx="0.408" transform="translate(1882.217 390.538)" fill="#d0e8be"/>
      <rect id="사각형_1432" data-name="사각형 1432" width="9.781" height="3.929" rx="0.408" transform="translate(1882.217 396.539)" fill="#c2bde2"/>
      <rect id="사각형_1433" data-name="사각형 1433" width="7.447" height="3.929" rx="0.408" transform="translate(1882.217 402.54)" fill="#ffbbcf"/>
    </g>
  </g>
</svg>
