<svg xmlns="http://www.w3.org/2000/svg" width="38" height="38" viewBox="0 0 38 38">
  <g id="그룹_3907" data-name="그룹 3907" transform="translate(-1643 -3272)">
    <g id="사각형_2526" data-name="사각형 2526" transform="translate(1643 3272)" fill="#ff607f" stroke="#ff607f" stroke-width="2" opacity="0">
      <rect width="38" height="38" rx="14" stroke="none"/>
      <rect x="1" y="1" width="36" height="36" rx="13" fill="none"/>
    </g>
    <g id="그룹_3679" data-name="그룹 3679" transform="translate(650.205 1478.71)">
      <path id="패스_7" data-name="패스 7" d="M1010.822,1808.684l1.41-1.585h-3.243l.115-.575a5.619,5.619,0,0,1,.8-2.274,1.592,1.592,0,0,1,1.335-.523,2.213,2.213,0,0,1,1.2.378l.3.188,1.823-1.984-.735-.172a5.7,5.7,0,0,0-1.261-.142h-.079a5.606,5.606,0,0,0-3.826,1.5,6.78,6.78,0,0,0-2.054,3.6h-1.1l-1.334,1.444h2.163l-1.355,8.21a5.225,5.225,0,0,1-.774,2.247,1.544,1.544,0,0,1-1.311.576,3.348,3.348,0,0,1-1.3-.265l-.275-.116-1.846,1.971.821.125a9.382,9.382,0,0,0,1.388.1,5.208,5.208,0,0,0,3.926-1.783,9.375,9.375,0,0,0,2.07-4.85l1.032-6.222h.021a15.745,15.745,0,0,1,1.852.11Z" fill="#fff"/>
      <path id="패스_8" data-name="패스 8" d="M1020.178,1818.76l.036-.04.417-2.087-.837.984h0c-.635.748-.9.786-.927.789,0,0-.136-.058-.345-.559l-.83-1.933.162-.2c.825-1.009,1.555-1.542,2.1-1.542a.607.607,0,0,1,.313.1l.294.183.957-1.689-.269-.168a1.525,1.525,0,0,0-.811-.252c-.878,0-1.917.782-3.173,2.389l-.048.061-.467-1.071c-.807-1.838-1.848-1.846-3.2-.081l-.254,1.091.535.237.1-.127c.587-.786.818-.851.814-.86.015.008.137.088.325.535l.746,1.756-.234.285c-1.07,1.277-1.71,1.544-2.062,1.544a.744.744,0,0,1-.341-.083l-.313-.176-.846,1.76.332.128a2.2,2.2,0,0,0,.77.178c.788,0,1.744-.752,3.011-2.364l.139-.178.563,1.335c.34.8.816,1.2,1.445,1.2h.005A2.831,2.831,0,0,0,1020.178,1818.76Z" fill="#fff"/>
      <path id="패스_9" data-name="패스 9" d="M1011.162,1818.153a11.649,11.649,0,0,1,.319-2.492,12.331,12.331,0,0,1,.787-2.436h0a5.115,5.115,0,0,1,1.417-1.877l.055-.045.248-1.247-.643.371a7.056,7.056,0,0,0-2.648,2.873,8.324,8.324,0,0,0-1.054,3.961,4.676,4.676,0,0,0,1.628,3.931l.419.323.206-.945-.086-.116A3.749,3.749,0,0,1,1011.162,1818.153Z" fill="#fff"/>
      <path id="패스_10" data-name="패스 10" d="M1022.473,1810.455l-.427-.328-.207.942.087.118a3.768,3.768,0,0,1,.649,2.3,11.658,11.658,0,0,1-.32,2.493,12.26,12.26,0,0,1-.788,2.438,5.133,5.133,0,0,1-1.417,1.877l-.055.045-.251,1.245.645-.369a7.064,7.064,0,0,0,2.647-2.873,8.361,8.361,0,0,0,1.056-3.967A4.68,4.68,0,0,0,1022.473,1810.455Z" fill="#fff"/>
    </g>
  </g>
</svg>
