<svg xmlns="http://www.w3.org/2000/svg" width="38" height="38" viewBox="0 0 38 38">
  <g id="그룹_3912" data-name="그룹 3912" transform="translate(-1576 -3140)">
    <rect id="사각형_2525" data-name="사각형 2525" width="38" height="38" rx="14" transform="translate(1576 3140)" fill="none" opacity="0.002"/>
    <g id="그룹_3680" data-name="그룹 3680" transform="translate(1255.166 2759.475)">
      <path id="패스_14" data-name="패스 14" d="M1024.416,1822.095l.055-.061.634-3.171-1.272,1.495v0c-.965,1.136-1.368,1.194-1.409,1.2,0,0-.207-.088-.524-.849l-1.261-2.937.246-.3c1.254-1.533,2.363-2.343,3.2-2.343a.921.921,0,0,1,.476.154l.447.278,1.454-2.567-.409-.255a2.316,2.316,0,0,0-1.232-.383c-1.334,0-2.913,1.188-4.821,3.63l-.073.093-.709-1.627c-1.226-2.793-2.808-2.8-4.859-.123l-.386,1.658.813.36.146-.193c.892-1.194,1.243-1.293,1.237-1.307.023.012.208.134.494.813l1.134,2.668-.356.433c-1.626,1.94-2.6,2.346-3.133,2.346a1.13,1.13,0,0,1-.518-.126l-.476-.267-1.286,2.674.5.194a3.34,3.34,0,0,0,1.17.27c1.2,0,2.65-1.143,4.575-3.592l.211-.271.855,2.029c.517,1.214,1.24,1.831,2.2,1.831h.008A4.3,4.3,0,0,0,1024.416,1822.095Z" transform="translate(-679.552 -1418.102)" fill="#ff6200"/>
      <path id="패스_15" data-name="패스 15" d="M1011.958,1822.36a17.7,17.7,0,0,1,.485-3.786,18.734,18.734,0,0,1,1.2-3.7h0a7.775,7.775,0,0,1,2.153-2.852l.084-.068.377-1.895-.977.564a10.722,10.722,0,0,0-4.024,4.365,12.647,12.647,0,0,0-1.6,6.019,7.1,7.1,0,0,0,2.474,5.973l.637.491.313-1.436-.131-.176A5.7,5.7,0,0,1,1011.958,1822.36Z" transform="translate(-681.795 -1419.289)" fill="#ff6200"/>
      <path id="패스_16" data-name="패스 16" d="M1023.891,1810.625l-.649-.5-.315,1.431.132.179a5.726,5.726,0,0,1,.986,3.493,17.72,17.72,0,0,1-.486,3.788,18.633,18.633,0,0,1-1.2,3.7,7.8,7.8,0,0,1-2.153,2.852l-.083.069-.381,1.892.98-.561a10.734,10.734,0,0,0,4.022-4.365,12.7,12.7,0,0,0,1.6-6.028A7.112,7.112,0,0,0,1023.891,1810.625Z" transform="translate(-674.54 -1419.252)" fill="#ff6200"/>
    </g>
  </g>
</svg>
