<svg xmlns="http://www.w3.org/2000/svg" width="50" height="50" viewBox="0 0 50 50">
  <g id="그룹_7380" data-name="그룹 7380" transform="translate(-1138 -695.595)">
    <rect id="사각형_5432" data-name="사각형 5432" width="50" height="50" transform="translate(1138 695.595)" fill="#fff" opacity="0"/>
    <g id="그룹_5752" data-name="그룹 5752" transform="translate(-726.78 317.359)">
      <rect id="사각형_1430" data-name="사각형 1430" width="34" height="34" transform="translate(1869.78 384.236)" fill="rgba(255,255,255,0)"/>
      <path id="패스_12624-2" data-name="패스 12624-2" d="M1892.494,402.287v5.171a.542.542,0,0,1-.535.549h-10.2l-1.308,1.308a.535.535,0,0,1-.74,0l-1.3-1.308h-1.181a2.2,2.2,0,0,1-2.2-2.193v-1.869a2.2,2.2,0,0,1,2.2-2.206h.924l1.44,1.433a.658.658,0,0,0,.492.2.7.7,0,0,0,.5-.2l1.424-1.433h9.941A.547.547,0,0,1,1892.494,402.287Z" transform="translate(0.7 2.334)" fill="#de092d"/>
      <path id="패스_12625-2" data-name="패스 12625-2" d="M1895.135,396.288v5.169a.542.542,0,0,1-.534.55h-12.845l-1.308,1.307a.533.533,0,0,1-.74,0l-1.3-1.307h-1.181a2.2,2.2,0,0,1-2.2-2.2v-1.868a2.2,2.2,0,0,1,2.2-2.207h.924l1.441,1.431a.656.656,0,0,0,.492.2.7.7,0,0,0,.5-.2l1.424-1.432h12.587A.548.548,0,0,1,1895.135,396.288Z" transform="translate(0.7 1.534)" fill="#6341af"/>
      <path id="패스_12626-2" data-name="패스 12626-2" d="M1897.583,390.294v5.162a.538.538,0,0,1-.526.549h-15.3l-1.308,1.307a.517.517,0,0,1-.731.009l-.009-.009-1.3-1.307h-1.181a2.2,2.2,0,0,1-2.2-2.193v-1.869a2.2,2.2,0,0,1,2.2-2.207h.924l1.44,1.433a.657.657,0,0,0,.492.2.694.694,0,0,0,.5-.2l1.425-1.433h15.035a.544.544,0,0,1,.542.546Z" transform="translate(0.7 0.733)" fill="#15923b"/>
      <rect id="사각형_1431" data-name="사각형 1431" width="13.535" height="4.453" rx="0.408" transform="translate(1883.875 391.378)" fill="#d0e8be"/>
      <rect id="사각형_1432" data-name="사각형 1432" width="11.085" height="4.453" rx="0.408" transform="translate(1883.875 398.179)" fill="#c2bde2"/>
      <rect id="사각형_1433" data-name="사각형 1433" width="8.44" height="4.453" rx="0.408" transform="translate(1883.875 404.981)" fill="#ffbbcf"/>
    </g>
    <g id="그룹_7375" data-name="그룹 7375" transform="translate(1 2)">
      <circle id="타원_1477" data-name="타원 1477" cx="12" cy="12" r="12" transform="translate(1158 713.595)" fill="#fff"/>
      <g id="패스_29382" data-name="패스 29382" transform="translate(1159 714.595)" fill="#fff">
        <path d="M 11 21 C 5.485980033874512 21 1 16.5140209197998 1 11 C 1 5.485980033874512 5.485980033874512 1 11 1 C 16.5140209197998 1 21 5.485980033874512 21 11 C 21 16.5140209197998 16.5140209197998 21 11 21 Z" stroke="none"/>
        <path d="M 11 2 C 6.037380218505859 2 2 6.037380218505859 2 11 C 2 15.96261978149414 6.037380218505859 20 11 20 C 15.96261978149414 20 20 15.96261978149414 20 11 C 20 6.037380218505859 15.96261978149414 2 11 2 M 11 0 C 17.07513046264648 0 22 4.924869537353516 22 11 C 22 17.07513046264648 17.07513046264648 22 11 22 C 4.924869537353516 22 0 17.07513046264648 0 11 C 0 4.924869537353516 4.924869537353516 0 11 0 Z" stroke="none" fill="#4da400"/>
      </g>
      <path id="다각형_45" data-name="다각형 45" d="M5.6,0l5.6,9.339H0Z" transform="translate(1176 719.992) rotate(90)" fill="#4da400"/>
    </g>
  </g>
</svg>
