<svg xmlns="http://www.w3.org/2000/svg" width="38" height="38" viewBox="0 0 38 38">
  <g id="그룹_3916" data-name="그룹 3916" transform="translate(-1576 -2876)">
    <rect id="사각형_2528" data-name="사각형 2528" width="38" height="38" rx="14" transform="translate(1576 2876)" fill="none" opacity="0.002"/>
    <g id="그룹_3683" data-name="그룹 3683" transform="matrix(0.966, -0.259, 0.259, 0.966, 257.906, 1258.575)">
      <path id="패스_2" data-name="패스 2" d="M863.1,1928.889v-.2q0-5.024,0-10.049a.44.44,0,0,1,.189-.391,5.418,5.418,0,0,1,1.886-1.011,5.9,5.9,0,0,1,1.183-.214,6.821,6.821,0,0,1,3.718.928,20.666,20.666,0,0,0,2.186,1.093,7.711,7.711,0,0,0,1.757.5,7.449,7.449,0,0,0,1.1.1,4.317,4.317,0,0,0,2.2-.687c.258-.157.5-.336.769-.515.005.055.013.1.013.149q0,5.092,0,10.183a.251.251,0,0,1-.117.234,5.348,5.348,0,0,1-3.478.993,9.2,9.2,0,0,1-3.261-.9c-.712-.318-1.448-.581-2.181-.85-.381-.14-.776-.248-1.168-.353a3.021,3.021,0,0,0-.555-.084,9.727,9.727,0,0,0-1.269-.071,8.056,8.056,0,0,0-1.083.214,4.53,4.53,0,0,0-1.627.786l-.18.119A.685.685,0,0,1,863.1,1928.889Z" fill="#2fc314"/>
    </g>
    <g id="그룹_3684" data-name="그룹 3684" transform="translate(1227 2642)">
      <rect id="사각형_2435" data-name="사각형 2435" width="2" height="18" transform="matrix(0.966, -0.259, 0.259, 0.966, 358.107, 246.619)" fill="#535353"/>
      <circle id="타원_2" data-name="타원 2" cx="1.5" cy="1.5" r="1.5" transform="translate(357 243)" fill="#535353"/>
    </g>
  </g>
</svg>
