<svg xmlns="http://www.w3.org/2000/svg" width="38" height="38" viewBox="0 0 38 38">
  <g id="그룹_3903" data-name="그룹 3903" transform="translate(-1643 -3008)">
    <g id="사각형_2524" data-name="사각형 2524" transform="translate(1643 3008)" fill="#a77767" stroke="#a77767" stroke-width="2" opacity="0">
      <rect width="38" height="38" rx="14" stroke="none"/>
      <rect x="1" y="1" width="36" height="36" rx="13" fill="none"/>
    </g>
    <g id="그룹_3676" data-name="그룹 3676" transform="translate(1291 2678)">
      <g id="그룹_3616" data-name="그룹 3616">
        <rect id="사각형_2455" data-name="사각형 2455" width="17" height="2" transform="translate(360 340)" fill="#fff"/>
        <rect id="사각형_2457" data-name="사각형 2457" width="3" height="2" transform="translate(377 340) rotate(90)" fill="#fff"/>
        <rect id="사각형_2458" data-name="사각형 2458" width="3" height="2" transform="translate(362 340) rotate(90)" fill="#fff"/>
      </g>
      <g id="그룹_3617" data-name="그룹 3617" transform="translate(0 1)">
        <rect id="사각형_2456" data-name="사각형 2456" width="18" height="2" transform="translate(369.5 340) rotate(90)" fill="#fff"/>
        <rect id="사각형_2459" data-name="사각형 2459" width="5" height="2" transform="translate(371 358) rotate(180)" fill="#fff"/>
      </g>
    </g>
    <g id="그룹_3677" data-name="그룹 3677" transform="translate(1295 2678)">
      <g id="그룹_3616-2" data-name="그룹 3616" transform="translate(368 348)">
        <rect id="사각형_2455-2" data-name="사각형 2455" width="10" height="2" fill="#fff"/>
        <rect id="사각형_2458-2" data-name="사각형 2458" width="2" height="2" transform="translate(2 1) rotate(90)" fill="#fff"/>
        <rect id="사각형_2483" data-name="사각형 2483" width="2" height="2" transform="translate(10 1) rotate(90)" fill="#fff"/>
        <rect id="사각형_2484" data-name="사각형 2484" width="2" height="4" transform="translate(7 9) rotate(90)" fill="#fff"/>
      </g>
      <rect id="사각형_2456-2" data-name="사각형 2456" width="11" height="2" transform="translate(374 348) rotate(90)" fill="#fff"/>
    </g>
  </g>
</svg>
