<svg xmlns="http://www.w3.org/2000/svg" width="40" height="40" viewBox="0 0 40 40">
  <g id="그룹_4011" data-name="그룹 4011" transform="translate(-2034 -335)">
    <rect id="사각형_2711" data-name="사각형 2711" width="40" height="40" rx="10" transform="translate(2034 335)" fill="#fff" opacity="0"/>
    <g id="그룹_3886" data-name="그룹 3886" transform="translate(170 274.005)">
      <path id="패스_13226" data-name="패스 13226" d="M918.91,1824.94a6.128,6.128,0,0,0-.25-.59l1.49-2.64-1.25-1.26-1.26-1.26-2.64,1.49a6.065,6.065,0,0,0-.59-.24l-.81-2.92h-3.56l-.81,2.93a4.115,4.115,0,0,0-.58.23l-2.64-1.49-1.26,1.26-1.25,1.26,1.5,2.64a2.481,2.481,0,0,0-.25.58l-2.92.81v3.56l2.93.81a2.418,2.418,0,0,0,.23.58l-1.5,2.64,1.26,1.26,1.26,1.25,2.64-1.5a2.092,2.092,0,0,0,.58.24l.81,2.93h3.56l.81-2.92a2.478,2.478,0,0,0,.58-.25l2.64,1.5,1.26-1.26,1.26-1.26-1.5-2.64a3.61,3.61,0,0,0,.24-.57v-.01l2.92-.81v-3.56Zm-7.09,6.87a4.3,4.3,0,1,1,4.3-4.3A4.3,4.3,0,0,1,911.82,1831.81Z" transform="translate(972.18 -1746.52)" fill="#4d5867"/>
      <g id="타원_328" data-name="타원 328" transform="translate(1879 76)" fill="none" stroke="#fe7701" stroke-width="1">
        <circle cx="5" cy="5" r="5" stroke="none"/>
        <circle cx="5" cy="5" r="4.5" fill="none"/>
      </g>
    </g>
  </g>
</svg>
