<svg xmlns="http://www.w3.org/2000/svg" width="34" height="34" viewBox="0 0 34 34"><defs><style>.a{fill:#fff;stroke:#fec301;opacity:0;}.b{fill:#fe7701;}.c{stroke:none;}.d{fill:none;}</style></defs><g class="a"><rect class="c" width="34" height="34" rx="3"/><rect class="d" x="0.5" y="0.5" width="33" height="33" rx="2.5"/></g><g transform="translate(-853.95 -1752.92)"><circle class="b" cx="2.885" cy="2.885" r="2.885" transform="translate(867.945 1767.013)"/><path d="M870.83,1775.174a5.275,5.275,0,1,1,5.275-5.276A5.28,5.28,0,0,1,870.83,1775.174Zm0-9.55a4.275,4.275,0,1,0,4.275,4.274A4.28,4.28,0,0,0,870.83,1765.624Z"/><path d="M881.69,1769.79l-.02-.1c-.11-.31-.25-.64-.42-1.02-.07-.17-.16-.35-.25-.53a9.3,9.3,0,0,0-.48-.82c-.11-.18-.23-.35-.35-.51-.16-.22-.33-.45-.52-.68l-.08-.09-.16-.19a11.763,11.763,0,0,0-2.15-1.84l-.08-.05.72-1.25a.545.545,0,0,0,.06-.43.593.593,0,0,0-.27-.35.545.545,0,0,0-.43-.06.593.593,0,0,0-.35.27l-.72,1.24-.08-.04a11.226,11.226,0,0,0-4.61-1.2h-.1v-1.45a.57.57,0,0,0-1.14,0v1.45h-.1a11.271,11.271,0,0,0-4.62,1.2l-.08.05-.72-1.25a.573.573,0,0,0-.78-.21.592.592,0,0,0-.27.35.545.545,0,0,0,.06.43l.72,1.25-.07.06a11.345,11.345,0,0,0-2.15,1.83l-.15.18-.09.1c-.18.22-.36.45-.52.68-.12.16-.24.33-.35.51-.16.25-.32.53-.47.82a4.386,4.386,0,0,0-.26.53c-.18.39-.31.72-.42,1.03l-.02.05v.04a.426.426,0,0,0-.02.11.884.884,0,0,0,.02.17c.04.11.08.21.13.32l.09.21.04.12a2.453,2.453,0,0,1,.1.24,10.985,10.985,0,0,0,1.28,2.2,10.635,10.635,0,0,0,.83.98q.375.39.75.72v.01l.02.01a11.193,11.193,0,0,0,7.4,2.8h.44a11.193,11.193,0,0,0,7.4-2.8h.01c0-.01.01-.01.01-.02a9.979,9.979,0,0,0,.75-.72,11.407,11.407,0,0,0,.82-.96l.01-.02a10.108,10.108,0,0,0,1.28-2.2,2.589,2.589,0,0,0,.1-.25l.04-.11c.03-.07.06-.14.09-.22a2.868,2.868,0,0,0,.13-.31.879.879,0,0,0,.02-.17A.424.424,0,0,0,881.69,1769.79Zm-1.11.27a10.294,10.294,0,0,1-6.25,6.01l-.06.02h-.01a10.509,10.509,0,0,1-3.38.56h-.1a10.355,10.355,0,0,1-3.39-.57l-.06-.01a10.294,10.294,0,0,1-6.25-6.01l-.06-.16.05-.16c.11-.3.25-.58.38-.85a10.066,10.066,0,0,1,1.16-1.84l.11.03-.08-.06a8.483,8.483,0,0,1,.78-.85l.06-.07c.11-.11.21-.21.33-.31a10.264,10.264,0,0,1,3.52-2.07l.06-.02.01.01a10.69,10.69,0,0,1,3.41-.56h.03a10.705,10.705,0,0,1,3.42.56l.07.01a10.306,10.306,0,0,1,3.53,2.07c.11.1.21.2.32.31l.07.07a9.7,9.7,0,0,1,.77.85l.03.03a10.332,10.332,0,0,1,1.16,1.83l.01.03a7.755,7.755,0,0,1,.37.83l.06.16Z"/></g></svg>