<svg width="70" height="70" viewBox="0 0 70 70" fill="none" xmlns="http://www.w3.org/2000/svg">
<g clip-path="url(#clip0_5220_15331)">
<path d="M44.84 35.5H51.2C51.67 35.5 52.06 35.88 52.06 36.34V52.51H44.85V35.5H44.84Z" fill="#616161"/>
<path d="M18.79 35.5H43.34V52.51H17.94V36.33C17.94 35.87 18.32 35.5 18.79 35.5Z" fill="#D8D8D8"/>
<path d="M13.85 53.8098H56.14C56.62 53.8098 57 54.1898 57 54.6498V56.9998H13V54.6398C13 54.1798 13.38 53.7998 13.85 53.7998V53.8098Z" fill="#262626"/>
<path d="M51.16 34.21H18.84V35.5H51.17V34.21H51.16Z" fill="#505050"/>
<path d="M52.06 52.52H17.94V53.81H52.05V52.52H52.06Z" fill="#A0A0A0"/>
<path d="M35 17.4102C29.43 17.4102 24.91 24.9302 24.91 34.2102H18.81C18.33 34.2102 17.94 33.8202 17.96 33.3502C18.42 24.4702 25.87 17.4102 34.99 17.4102H35Z" fill="#D8D8D8"/>
<path d="M35 17.4102C32.81 17.4102 31.04 24.9302 31.04 34.2102H24.91C24.91 24.9302 29.43 17.4102 35 17.4102Z" fill="#C2C2C2"/>
<path d="M38.96 35.5H31.04V52.51H38.96V35.5Z" fill="#A8A8A8"/>
<path d="M45.09 35.5H38.96V52.51H45.09V35.5Z" fill="#808080"/>
<path d="M20.56 28.0602C22.83 21.8302 28.44 17.4102 35 17.4102C33.3 17.4102 31.84 21.9802 31.29 28.3902C31.25 28.8202 30.89 29.1502 30.45 29.1502H21.36C20.78 29.1502 20.37 28.5902 20.57 28.0502L20.56 28.0602Z" fill="#505050"/>
<path d="M23.54 28.03C25.41 22.73 29.57 18.72 34.65 17.48C33.1 18.05 31.8 22.43 31.28 28.4C31.24 28.83 30.88 29.16 30.44 29.16H24.33C23.75 29.16 23.34 28.58 23.54 28.03Z" fill="#262626"/>
<path d="M37.51 26.8899C37.88 26.1299 38.66 25.7299 39.25 25.9999C39.84 26.2699 40.03 27.1199 39.66 27.8799C39.29 28.6399 38.51 29.0399 37.92 28.7699C37.33 28.4999 37.14 27.6499 37.51 26.8899Z" fill="#B1B1B1"/>
<path d="M39.66 27.8802C40.03 27.1102 39.84 26.2602 39.25 25.9902C38.66 25.7202 37.88 26.1102 37.51 26.8802L39.66 27.8802Z" fill="#B1B1B1"/>
<path d="M34.79 27.32L37.95 28.79L39.25 26L36.04 24.52L34.79 27.33V27.32Z" fill="#B1B1B1"/>
<path d="M34.3 25.4099C34.67 24.6499 35.45 24.2499 36.04 24.5199C36.63 24.7899 36.82 25.6399 36.45 26.3999C36.08 27.1599 35.3 27.5599 34.71 27.2899C34.12 27.0199 33.93 26.1699 34.3 25.4099Z" fill="#D8D8D8"/>
<path d="M34.83 25.6602C35.02 25.2702 35.29 25.0102 35.44 25.0802C35.59 25.1502 35.56 25.5202 35.37 25.9102C35.18 26.3002 34.91 26.5602 34.76 26.4902C34.61 26.4202 34.64 26.0502 34.83 25.6602Z" fill="#A0A0A0"/>
<path d="M34.77 26.4801L35.44 25.0801C34.91 24.7801 31.83 23.3301 31.83 23.3301L31.09 24.8701C31.59 25.1101 34.77 26.4801 34.77 26.4801Z" fill="#A0A0A0"/>
<path d="M36.45 26.4002C36.82 25.6302 36.63 24.7802 36.04 24.5102C35.45 24.2402 34.67 24.6302 34.3 25.4002L36.45 26.4002Z" fill="#D8D8D8"/>
<path d="M35.37 25.9C35.56 25.5 35.59 25.13 35.44 25.07C35.29 25 35.02 25.26 34.83 25.65L35.37 25.91V25.9Z" fill="#505050"/>
<path d="M35.1 25.7798L35.44 25.0698C34.91 24.7698 31.83 23.3198 31.83 23.3198L31.46 24.0998L35.11 25.7798H35.1Z" fill="#505050"/>
<path d="M32.04 24.3698C32.46 23.4998 33.07 22.9198 33.4 23.0798C33.73 23.2298 33.67 24.0598 33.25 24.9298C32.83 25.7998 32.22 26.3798 31.89 26.2298C31.56 26.0798 31.62 25.2498 32.04 24.3798V24.3698Z" fill="#D8D8D8"/>
<path d="M31.89 26.22L33.4 23.07C32.21 22.4 28.67 20.71 28.67 20.71L27.02 24.16C28.15 24.69 31.89 26.22 31.89 26.22Z" fill="#D8D8D8"/>
<path d="M33.54 24.1302C33.67 23.5902 33.63 23.1702 33.4 23.0602C33.17 22.9502 32.81 23.1902 32.47 23.6402L33.53 24.1302H33.54Z" fill="#B1B1B1"/>
<path d="M33.01 23.8802L33.4 23.0602C32.21 22.3902 28.67 20.7002 28.67 20.7002L28.21 21.6702L33.01 23.8802Z" fill="#F0F0F0"/>
<path d="M27.75 22.3902C28.38 21.0702 29.36 20.2102 29.93 20.4702C30.5 20.7302 30.45 22.0202 29.82 23.3402C29.19 24.6602 28.21 25.5202 27.64 25.2602C27.07 25.0002 27.12 23.7102 27.75 22.3902Z" fill="#969696"/>
<path d="M27.64 25.2701L29.94 20.4801C27.89 19.3501 24.91 17.8901 24.91 17.8901L22.39 23.1401C24.32 24.0501 27.64 25.2801 27.64 25.2801V25.2701Z" fill="#969696"/>
<path d="M30.34 21.5202C30.36 20.9902 30.23 20.6002 29.95 20.4702C29.66 20.3402 29.27 20.4902 28.87 20.8402L30.34 21.5202Z" fill="#BABABA"/>
<path d="M29.6 21.1799L29.94 20.4699C27.89 19.3399 24.91 17.8799 24.91 17.8799L24.46 18.8199L29.6 21.1899V21.1799Z" fill="#BABABA"/>
<path d="M22.66 20.0498C23.64 18.0098 25.15 16.6798 26.03 17.0798C26.91 17.4898 26.83 19.4698 25.85 21.5198C24.87 23.5598 23.36 24.8898 22.48 24.4898C21.6 24.0798 21.68 22.0998 22.66 20.0498Z" fill="#D8D8D8"/>
<path d="M22.49 24.4901L26.04 17.0901C22.87 15.3401 18.26 13.0801 18.26 13.0801L14.37 21.1801C17.35 22.5901 22.48 24.4801 22.48 24.4801L22.49 24.4901Z" fill="#D8D8D8"/>
<path d="M14.72 16.3901C15.79 14.1601 17.38 12.6701 18.26 13.0801C19.14 13.4901 18.99 15.6301 17.92 17.8701C16.85 20.1101 15.26 21.5901 14.38 21.1901C13.5 20.7801 13.65 18.6401 14.72 16.4001V16.3901Z" fill="#A8A8A8"/>
<path d="M14.79 19.8502C13.3 19.1602 12.68 17.3502 13.42 15.8102C14.17 14.2602 15.98 13.5702 17.47 14.2602" fill="#505050"/>
<path d="M15.36 16.6998C16.1 15.1598 17.05 14.0598 17.47 14.2598C17.9 14.4598 17.64 15.8698 16.9 17.4098C16.16 18.9498 15.21 20.0498 14.79 19.8498C14.36 19.6498 14.62 18.2398 15.36 16.6998Z" fill="#262626"/>
<path d="M26.64 18.73C26.68 17.91 26.49 17.28 26.04 17.07C25.59 16.86 24.99 17.1 24.37 17.65L26.64 18.72V18.73Z" fill="#D8D8D8"/>
<path d="M25.51 18.1898L26.04 17.0798C22.88 15.3298 18.27 13.0698 18.27 13.0698L17.57 14.5298L25.51 18.1898Z" fill="#D8D8D8"/>
<path d="M18.79 15.0899C18.92 14.0599 18.76 13.2899 18.26 13.0599C17.77 12.8299 17.05 13.1999 16.33 13.9599L18.79 15.0899Z" fill="#A8A8A8"/>
<path d="M17.38 14.44L17.47 14.24C17.12 14.08 16.75 13.99 16.38 13.98L17.37 14.44H17.38Z" fill="#505050"/>
<path d="M17.67 14.5699C17.64 14.3999 17.58 14.2899 17.48 14.2399C17.38 14.1899 17.25 14.2199 17.1 14.3099L17.67 14.5699Z" fill="#3C3C3C"/>
<path d="M32.22 25.5199C32.29 25.3599 31.23 24.7199 29.54 23.8599C29.38 24.1299 29.21 24.3599 29.03 24.5599C30.89 25.2899 32.14 25.6699 32.22 25.5099V25.5199Z" fill="#B1B1B1"/>
<path d="M29.03 24.5699C29.21 24.3699 29.38 24.1299 29.54 23.8599C29.23 23.6999 28.9 23.5399 28.55 23.3599L28.15 24.2099C28.46 24.3399 28.76 24.4499 29.04 24.5699H29.03Z" fill="#505050"/>
<path d="M28.14 24.2102L28.54 23.3602C27.66 22.9302 26.67 22.4702 25.61 21.9902C25.43 22.3102 25.24 22.6102 25.05 22.8902C26.15 23.3802 27.2 23.8302 28.14 24.2102Z" fill="#505050"/>
<path d="M24.92 22.8398C24.92 22.8398 25.01 22.8798 25.05 22.8998C25.25 22.6298 25.44 22.3298 25.61 21.9998C25.53 21.9598 25.44 21.9198 25.36 21.8898C24.9 21.6898 24.45 21.4898 24.01 21.2998L23.56 22.2298C24 22.4298 24.45 22.6398 24.91 22.8398H24.92Z" fill="#C4C4C4"/>
<path d="M18.07 19.1999C17.96 19.4299 20.33 20.7299 23.58 22.2199L24.03 21.2899C20.74 19.8699 18.19 18.9599 18.08 19.1999H18.07Z" fill="#C4C4C4"/>
<path d="M35 17.4102C44.13 17.4102 51.58 24.4702 52.03 33.3502C52.05 33.8202 51.66 34.2102 51.18 34.2102H45.08C45.08 24.9302 40.56 17.4102 34.99 17.4102H35Z" fill="#616161"/>
<path d="M35 17.4102C40.57 17.4102 45.09 24.9302 45.09 34.2102H38.96C38.96 24.9302 37.19 17.4102 35 17.4102Z" fill="#808080"/>
<path d="M35 17.4102C37.19 17.4102 38.96 24.9302 38.96 34.2102H31.04C31.04 24.9302 32.81 17.4102 35 17.4102Z" fill="#A8A8A8"/>
<path d="M31.04 35.5H24.91V52.51H31.04V35.5Z" fill="#C2C2C2"/>
<path d="M44.15 40.1802C45.82 40.1802 47.17 41.5102 47.17 43.1402V52.5202H41.13V43.1402C41.13 41.5002 42.48 40.1802 44.15 40.1802Z" fill="white"/>
<path d="M44.85 40.1802C46.52 40.1802 47.87 41.5102 47.87 43.1402V52.5202H41.83V43.1402C41.83 41.5002 43.18 40.1802 44.85 40.1802Z" fill="#262626"/>
<path d="M47.87 51.25H41.83V52.38H47.87V51.25Z" fill="#A0A0A0"/>
<path d="M46.72 49.9902H41.83V51.1202H46.72V49.9902Z" fill="#A0A0A0"/>
<path d="M45.57 48.73H41.83V49.86H45.57V48.73Z" fill="#A0A0A0"/>
<path d="M44.41 47.46H41.83V48.59H44.41V47.46Z" fill="#A0A0A0"/>
<path d="M43.26 46.2002H41.83V47.3302H43.26V46.2002Z" fill="#A0A0A0"/>
<path d="M42.1 44.9399H41.83V46.0699H42.1V44.9399Z" fill="#A0A0A0"/>
<path d="M25.85 40.1802C24.18 40.1802 22.83 41.5102 22.83 43.1402V52.5202H28.87V43.1402C28.87 41.5002 27.52 40.1802 25.85 40.1802Z" fill="white"/>
<path d="M25.15 40.1802C23.48 40.1802 22.13 41.5102 22.13 43.1402V52.5202H28.17V43.1402C28.17 41.5002 26.82 40.1802 25.15 40.1802Z" fill="#505050"/>
<path d="M28.17 51.25H22.13V52.38H28.17V51.25Z" fill="#DADADA"/>
<path d="M28.17 49.9902H23.28V51.1202H28.17V49.9902Z" fill="#DADADA"/>
<path d="M28.17 48.73H24.43V49.86H28.17V48.73Z" fill="#DADADA"/>
<path d="M28.17 47.46H25.59V48.59H28.17V47.46Z" fill="#DADADA"/>
<path d="M28.17 46.2002H26.74V47.3302H28.17V46.2002Z" fill="#DADADA"/>
<path d="M28.17 44.9399H27.9V46.0699H28.17V44.9399Z" fill="#DADADA"/>
<path d="M41.24 28.0499H41.39C41.39 28.6299 41.63 29.1499 42.01 29.5299C42.4 29.9099 42.93 30.1399 43.52 30.1399C44.11 30.1399 44.64 29.9099 45.03 29.5299C45.42 29.1499 45.65 28.6299 45.65 28.0499C45.65 27.4699 45.41 26.9499 45.03 26.5699C44.64 26.1899 44.11 25.9599 43.52 25.9599C42.93 25.9599 42.4 26.1899 42.01 26.5699C41.62 26.9499 41.39 27.4699 41.39 28.0499H41.09C41.09 26.7299 42.18 25.6699 43.52 25.6699C44.86 25.6699 45.95 26.7399 45.95 28.0499C45.95 29.3599 44.86 30.4299 43.52 30.4299C42.18 30.4299 41.09 29.3599 41.09 28.0499H41.24Z" fill="#F0F0F0"/>
<path d="M41.38 27.4199C40.89 27.4199 40.4801 27.4499 40.2001 27.5099C40.0601 27.5399 39.95 27.5699 39.89 27.5999C39.86 27.6199 39.84 27.6299 39.84 27.6399H39.82H39.85V27.6499H39.83H39.8601C39.8601 27.6499 39.86 27.6499 39.88 27.6699C39.91 27.6999 39.9601 27.7399 40.0401 27.7799C40.2801 27.9099 40.73 28.0599 41.3 28.1999C41.91 28.3399 42.66 28.4799 43.49 28.5699C44.29 28.6599 45.0301 28.7099 45.6501 28.7099H45.69C46.18 28.7099 46.59 28.6799 46.87 28.6199C47.01 28.5899 47.12 28.5599 47.18 28.5299C47.2101 28.5099 47.23 28.4999 47.23 28.4899H47.25H47.2201V28.4799H47.2401H47.21C47.21 28.4799 47.21 28.4799 47.19 28.4599C47.16 28.4299 47.11 28.3899 47.03 28.3399C46.79 28.2099 46.34 28.0499 45.76 27.9199C45.68 27.8999 45.6301 27.8199 45.6501 27.7399C45.6701 27.6599 45.7501 27.6099 45.8301 27.6299C46.3101 27.7399 46.71 27.8699 47 27.9899C47.14 28.0499 47.26 28.1199 47.35 28.1899C47.39 28.2299 47.43 28.2599 47.46 28.3099C47.49 28.3599 47.51 28.4099 47.51 28.4699V28.4999C47.51 28.5599 47.47 28.6199 47.43 28.6599C47.36 28.7299 47.27 28.7699 47.17 28.8099C47.01 28.8699 46.8 28.8999 46.55 28.9299C46.3 28.9599 46 28.9699 45.67 28.9699H45.6301C45.0001 28.9699 44.2501 28.9299 43.4401 28.8299C42.6101 28.7299 41.84 28.5999 41.22 28.4499C40.74 28.3399 40.35 28.2099 40.06 28.0899C39.92 28.0299 39.8 27.9599 39.71 27.8899C39.67 27.8499 39.63 27.8199 39.6 27.7699C39.57 27.7199 39.55 27.6699 39.55 27.6099V27.5799C39.55 27.5199 39.59 27.4599 39.63 27.4199C39.7 27.3499 39.79 27.3099 39.89 27.2699C40.05 27.2099 40.26 27.1799 40.51 27.1499C40.76 27.1199 41.06 27.1099 41.39 27.1099C41.47 27.1099 41.5401 27.1799 41.5401 27.2599C41.5401 27.3399 41.47 27.4099 41.39 27.4099L41.38 27.4199Z" fill="#F0F0F0"/>
</g>
<defs>
<clipPath id="clip0_5220_15331">
<rect width="44" height="44" fill="white" transform="translate(13 13)"/>
</clipPath>
</defs>
</svg>
