<?xml version="1.0" encoding="UTF-8"?><svg id="_레이어_2" xmlns="http://www.w3.org/2000/svg" viewBox="0 0 220.05 46.49"><defs><style>.cls-1{fill:#f0f0f0;}.cls-2{fill:#262626;}.cls-3{fill:#fff;}.cls-4{fill:#d8d8d8;}.cls-5{fill:#a0a0a0;}.cls-6{fill:#bababa;}.cls-7{fill:#0a0a0a;}.cls-8{fill:#969696;}.cls-9{fill:gray;}.cls-10{fill:#242424;}.cls-11{fill:#505050;}.cls-12{fill:#dadada;}.cls-13{fill:#616161;}.cls-14{fill:#b1b1b1;}.cls-15{fill:#c2c2c2;}.cls-16{fill:#a8a8a8;}.cls-17{fill:#c4c4c4;}.cls-18{fill:#3c3c3c;}</style></defs><g id="_레이어_1-2"><path class="cls-7" d="m43.95,25.84v20.65H4.82v-5.69h.01v-14.97c0-.54.13-1.05.36-1.5-.24-.5-.36-1.05-.33-1.61.14-2.79.89-5.48,2.19-7.92-1.48-.59-3.09-1.27-4.35-1.86-.62-.28-1.97-1.19-2-3.57-.87-1.55-.95-3.47-.14-5.15.8-1.66,2.33-2.82,4.08-3.14.08-.07.17-.14.26-.2.12-.09.23-.16.33-.22.23-.14.44-.26.64-.34l.39-.14c.19-.06.52-.15.91-.17.56-.03,1.07.07,1.53.28.25.12,4.73,2.32,7.89,4.06.51.26.94.66,1.27,1.17,1.61-.56,3.3-.92,5.03-1.05.34-.03.71-.05,1.08-.06h.42c10.42-.01,19.01,8.04,19.53,18.31.03.56-.09,1.12-.33,1.61.23.46.36.97.36,1.51Z"/><path class="cls-13" d="m34.23,24.99h6.36c.47,0,.86.38.86.84v16.17h-7.21v-17.01h0Z"/><path class="cls-4" d="m8.18,24.99h24.55v17.01H7.33v-16.18c0-.46.38-.83.85-.83Z"/><path class="cls-7" d="m3.24,43.3h42.29c.48,0,.86.38.86.84v2.35H2.39v-2.36c0-.46.38-.84.85-.84Z"/><path class="cls-11" d="m40.56,23.7H8.23v1.29h32.33v-1.29Z"/><path class="cls-5" d="m41.45,42H7.33v1.29h34.11v-1.29Z"/><path class="cls-4" d="m24.39,6.9c-5.57,0-10.09,7.52-10.09,16.8h-6.1c-.48,0-.87-.39-.85-.86.46-8.88,7.91-15.94,17.03-15.94h0Z"/><path class="cls-15" d="m24.39,6.9c-2.19,0-3.96,7.52-3.96,16.8h-6.13c0-9.28,4.52-16.8,10.09-16.8Z"/><path class="cls-16" d="m28.35,24.99h-7.92v17.01h7.92v-17.01Z"/><path class="cls-9" d="m34.48,24.99h-6.13v17.01h6.13v-17.01Z"/><path class="cls-11" d="m9.95,17.55c2.27-6.23,7.88-10.65,14.44-10.65-1.7,0-3.16,4.57-3.71,10.98-.04.43-.4.76-.84.76h-9.09c-.58,0-.99-.56-.79-1.1h0Z"/><path class="cls-10" d="m24.39,6.9s-.08,0-.11,0h.03s.05,0,.08,0h0Z"/><path class="cls-2" d="m12.93,17.52c1.87-5.3,6.03-9.31,11.11-10.55-1.55.57-2.85,4.95-3.37,10.92-.04.43-.4.76-.84.76h-6.11c-.58,0-.99-.58-.79-1.13Z"/><path class="cls-14" d="m26.9,16.38c.37-.76,1.15-1.16,1.74-.89.59.27.78,1.12.41,1.88-.37.76-1.15,1.16-1.74.89-.59-.27-.78-1.12-.41-1.88Z"/><path class="cls-14" d="m29.05,17.37h0c.37-.77.18-1.62-.41-1.89-.59-.27-1.37.12-1.74.89h0s2.15,1,2.15,1h0Z"/><path class="cls-14" d="m24.18,16.81l3.16,1.47,1.3-2.79-3.21-1.48-1.25,2.81Z"/><path class="cls-4" d="m23.69,14.9c.37-.76,1.15-1.16,1.74-.89.59.27.78,1.12.41,1.88-.37.76-1.15,1.16-1.74.89-.59-.27-.78-1.12-.41-1.88Z"/><path class="cls-5" d="m24.23,15.14c.19-.39.46-.65.61-.58.15.07.12.44-.07.83-.19.39-.46.65-.61.58-.15-.07-.12-.44.07-.83Z"/><path class="cls-5" d="m24.16,15.97l.67-1.4c-.53-.3-3.61-1.75-3.61-1.75l-.74,1.54c.5.24,3.68,1.61,3.68,1.61h0Z"/><path class="cls-4" d="m25.84,15.89h0c.37-.77.18-1.62-.41-1.89-.59-.27-1.37.12-1.74.89h0s2.15,1,2.15,1Z"/><path class="cls-11" d="m24.77,15.39h0c.19-.4.22-.77.07-.83-.15-.07-.42.19-.61.58h0s.54.26.54.26h0Z"/><path class="cls-11" d="m24.5,15.27l.34-.71c-.53-.3-3.61-1.75-3.61-1.75l-.37.78,3.65,1.68Z"/><path class="cls-4" d="m21.43,13.86c.42-.87,1.03-1.45,1.36-1.29.33.15.27.98-.15,1.85-.42.87-1.03,1.45-1.36,1.3-.33-.15-.27-.98.15-1.85Z"/><path class="cls-4" d="m21.28,15.71l1.51-3.15c-1.19-.67-4.73-2.36-4.73-2.36l-1.65,3.45c1.13.53,4.87,2.06,4.87,2.06Z"/><path class="cls-14" d="m22.93,13.62c.13-.54.09-.96-.14-1.07-.23-.11-.59.13-.93.58l1.06.49Z"/><path class="cls-1" d="m22.4,13.37l.39-.82c-1.19-.67-4.73-2.36-4.73-2.36l-.46.97,4.8,2.21Z"/><path class="cls-8" d="m17.14,11.88c.63-1.32,1.61-2.18,2.18-1.92.57.26.52,1.55-.11,2.87-.63,1.32-1.61,2.18-2.18,1.92-.57-.26-.52-1.55.11-2.87h0Z"/><path class="cls-8" d="m17.03,14.75l2.3-4.79c-2.05-1.13-5.03-2.59-5.03-2.59l-2.52,5.25c1.93.91,5.25,2.14,5.25,2.14h0Z"/><path class="cls-6" d="m19.73,11.01c.02-.53-.11-.92-.39-1.05-.29-.13-.68.02-1.08.37l1.47.68h0Z"/><path class="cls-6" d="m18.99,10.67l.34-.71c-2.05-1.13-5.03-2.59-5.03-2.59l-.45.94,5.14,2.37h0Z"/><path class="cls-4" d="m12.06,9.54c.98-2.04,2.49-3.37,3.37-2.97.88.41.8,2.39-.18,4.44-.98,2.04-2.49,3.37-3.37,2.97-.88-.41-.8-2.39.18-4.44Z"/><path class="cls-4" d="m11.88,13.98l3.55-7.4c-3.16-1.75-7.78-4.01-7.78-4.01l-3.89,8.11c2.98,1.41,8.11,3.3,8.11,3.3h0Z"/><path class="cls-16" d="m4.11,5.88c1.07-2.24,2.66-3.72,3.54-3.32.88.41.73,2.55-.34,4.79-1.07,2.24-2.66,3.72-3.54,3.32-.88-.41-.73-2.55.34-4.79h0Z"/><path class="cls-11" d="m4.18,9.34c-1.5-.69-2.11-2.5-1.37-4.04.74-1.54,2.55-2.24,4.05-1.55"/><path class="cls-2" d="m4.75,6.19c.74-1.54,1.69-2.64,2.11-2.44.43.2.17,1.61-.57,3.15-.74,1.54-1.69,2.64-2.11,2.44-.43-.2-.17-1.61.57-3.15Z"/><path class="cls-4" d="m16.03,8.22c.04-.82-.15-1.45-.6-1.66-.45-.21-1.05.03-1.67.58l2.27,1.07Z"/><path class="cls-4" d="m14.9,7.67l.53-1.11c-3.16-1.75-7.77-4.01-7.77-4.01l-.7,1.46,7.94,3.66h0Z"/><path class="cls-16" d="m8.19,4.58c.13-1.03-.03-1.8-.53-2.03-.49-.23-1.21.14-1.93.9l2.46,1.13Z"/><path class="cls-11" d="m6.77,3.93l.09-.2c-.35-.16-.72-.25-1.09-.26l.99.46h0Z"/><path class="cls-18" d="m7.06,4.06c-.03-.17-.09-.28-.19-.33-.1-.05-.23-.02-.38.07l.57.26Z"/><path class="cls-14" d="m21.61,15.01c.07-.16-.99-.8-2.68-1.66-.16.27-.33.5-.51.7,1.86.73,3.11,1.11,3.19.95Z"/><path class="cls-11" d="m18.43,14.06c.18-.2.35-.44.51-.71-.31-.16-.64-.32-.99-.5l-.4.85c.31.13.61.24.89.36Z"/><path class="cls-11" d="m17.54,13.7l.4-.85c-.88-.43-1.87-.89-2.93-1.37-.18.32-.37.62-.56.9,1.1.49,2.15.94,3.09,1.32Z"/><path class="cls-17" d="m14.32,12.33s.09.04.13.06c.2-.27.39-.57.56-.9-.08-.04-.17-.08-.25-.11-.46-.2-.91-.4-1.35-.59l-.45.93c.44.2.89.41,1.35.61h0Z"/><path class="cls-17" d="m7.46,8.69c-.11.23,2.26,1.53,5.51,3.02l.45-.93c-3.29-1.42-5.84-2.33-5.95-2.09h0Z"/><path class="cls-13" d="m24.39,6.9c9.13,0,16.58,7.06,17.03,15.94.02.47-.37.86-.85.86h-6.1c0-9.28-4.52-16.8-10.09-16.8h0Z"/><path class="cls-9" d="m24.39,6.9c5.57,0,10.09,7.52,10.09,16.8h-6.13c0-9.28-1.77-16.8-3.96-16.8Z"/><path class="cls-16" d="m24.39,6.9c2.19,0,3.96,7.52,3.96,16.8h-7.92c0-9.28,1.77-16.8,3.96-16.8Z"/><path class="cls-15" d="m20.43,24.99h-6.13v17.01h6.13v-17.01Z"/><path class="cls-3" d="m33.54,29.66c1.67,0,3.02,1.33,3.02,2.96v9.38h-6.04v-9.38c0-1.64,1.35-2.96,3.02-2.96Z"/><path class="cls-2" d="m34.24,29.66c1.67,0,3.02,1.33,3.02,2.96v9.38h-6.04v-9.38c0-1.64,1.35-2.96,3.02-2.96Z"/><path class="cls-5" d="m37.27,40.74h-6.04v1.13h6.04v-1.13Z"/><path class="cls-5" d="m36.11,39.48h-4.89v1.13h4.89v-1.13Z"/><path class="cls-5" d="m34.96,38.22h-3.74v1.13h3.74v-1.13Z"/><path class="cls-5" d="m33.8,36.95h-2.58v1.13h2.58v-1.13Z"/><path class="cls-5" d="m32.65,35.69h-1.43v1.13h1.43v-1.13Z"/><path class="cls-5" d="m31.49,34.43h-.27v1.13h.27v-1.13Z"/><path class="cls-3" d="m15.25,29.66c-1.67,0-3.02,1.33-3.02,2.96v9.38h6.04v-9.38c0-1.64-1.35-2.96-3.02-2.96Z"/><path class="cls-11" d="m14.54,29.66c-1.67,0-3.02,1.33-3.02,2.96v9.38h6.04v-9.38c0-1.64-1.35-2.96-3.02-2.96Z"/><path class="cls-12" d="m17.56,40.74h-6.04v1.13h6.04v-1.13Z"/><path class="cls-12" d="m17.56,39.48h-4.89v1.13h4.89v-1.13Z"/><path class="cls-12" d="m17.56,38.22h-3.74v1.13h3.74v-1.13Z"/><path class="cls-12" d="m17.56,36.95h-2.58v1.13h2.58v-1.13Z"/><path class="cls-12" d="m17.56,35.69h-1.43v1.13h1.43v-1.13Z"/><path class="cls-12" d="m17.56,34.43h-.27v1.13h.27v-1.13Z"/><path class="cls-1" d="m30.63,17.54h.15c0,.58.24,1.1.62,1.48.39.38.92.61,1.51.61s1.12-.23,1.51-.61c.39-.38.62-.9.62-1.48s-.24-1.1-.62-1.48c-.39-.38-.92-.61-1.51-.61s-1.12.23-1.51.61c-.39.38-.62.9-.62,1.48h-.3c0-1.32,1.09-2.38,2.43-2.38s2.43,1.07,2.43,2.38-1.09,2.38-2.43,2.38-2.43-1.07-2.43-2.38h.15Z"/><path class="cls-1" d="m30.77,16.91c-.49,0-.9.03-1.18.09-.14.03-.25.06-.31.09-.03.02-.05.03-.05.04h0s-.02,0-.02,0h.03s0,.01,0,.01h-.02s.03,0,.03,0h-.03s.03,0,.03,0h0s-.03,0-.03,0h.03-.02.02s0,0,0,0h-.02.02s0,0,.02.02c.03.03.08.07.16.11.24.13.69.28,1.26.42.61.14,1.36.28,2.19.37.8.09,1.54.14,2.16.14h.04c.49,0,.9-.03,1.18-.09.14-.03.25-.06.31-.09.03-.02.05-.03.05-.04h0s.02,0,.02,0h-.03s0-.01,0-.01h.02s-.03,0-.03,0h.03s-.03,0-.03,0h0s.03,0,.03,0h-.03.02-.02s0,0,0,0h.02-.02s0,0-.02-.02c-.03-.03-.08-.07-.16-.12-.24-.13-.69-.29-1.27-.42-.08-.02-.13-.1-.11-.18.02-.08.1-.13.18-.11.48.11.88.24,1.17.36.14.06.26.13.35.2.04.04.08.07.11.12.03.05.05.1.05.16v.03c0,.06-.04.12-.08.16-.07.07-.16.11-.26.15-.16.06-.37.09-.62.12-.25.03-.55.04-.88.04h-.04c-.63,0-1.38-.04-2.19-.14-.83-.1-1.6-.23-2.22-.38-.48-.11-.87-.24-1.16-.36-.14-.06-.26-.13-.35-.2-.04-.04-.08-.07-.11-.12-.03-.05-.05-.1-.05-.16v-.03c0-.06.04-.12.08-.16.07-.07.16-.11.26-.15.16-.06.37-.09.62-.12.25-.03.55-.04.88-.04.08,0,.15.07.15.15s-.07.15-.15.15h0Z"/><path class="cls-13" d="m67.52,18.27c-.72-.83-1.66-1.45-2.83-1.84-1.17-.4-2.63-.6-4.38-.6s-3.19.2-4.36.6-2.13,1.01-2.84,1.84c-.72.83-1.23,1.89-1.53,3.18-.3,1.29-.45,2.83-.45,4.61s.14,3.18.42,4.45c.28,1.27.77,2.33,1.47,3.18.7.85,1.64,1.49,2.83,1.91,1.19.42,2.68.64,4.48.64s3.29-.21,4.48-.64c1.19-.42,2.13-1.06,2.83-1.91.7-.85,1.19-1.91,1.47-3.18.28-1.27.42-2.76.42-4.45,0-1.78-.15-3.32-.45-4.61-.3-1.29-.81-2.35-1.53-3.18Zm-4.69,10.99c0,.71-.19,1.16-.56,1.36-.37.2-.99.3-1.86.3h-2.6v-8.1c0-.71.19-1.16.57-1.36.38-.2.99-.3,1.82-.3h2.62v8.1Z"/><path class="cls-13" d="m85.59,22.2c-.53-.75-1.22-1.35-2.06-1.81-.85-.45-1.9-.68-3.14-.68-1.32,0-2.35.16-3.12.49v-5.17l-.44-.95-.74.54.04.5-5.1.38v18.29l-.44.24.44.95c2.53.83,5.16,1.25,7.9,1.25s4.78-.64,6.13-1.93,2.03-3.4,2.03-6.33c0-1.09-.12-2.14-.35-3.14-.23-1-.62-1.88-1.14-2.64Zm-5.21,8.17c0,.57-.17.94-.51,1.09-.34.16-.89.23-1.65.23h-.96v-6.26c.02-.35.13-.61.34-.78.21-.19.45-.3.73-.34s.64-.05,1.09-.05h.96v6.1Z"/><path class="cls-13" d="m100.32,26.17c-.82-.35-1.74-.58-2.74-.68-1-.09-1.98-.14-2.93-.14v-.99c.45-.05.85-.09,1.21-.1s.65-.03.9-.03c.83,0,1.64.05,2.44.16s1.6.28,2.42.52l.73-4.23-.44-.95-1.71.11.27.35c-1.42-.3-2.93-.47-4.54-.47-2.32,0-4.15.36-5.48,1.09-1.35.73-2.03,2.1-2.03,4.1,0,1,.14,1.87.43,2.6.29.73.77,1.32,1.45,1.77.68.45,1.59.78,2.7,1,1.12.22,2.51.32,4.17.32v.99c-.4.05-.81.09-1.23.1-.42.02-.87.03-1.34.03-1.02,0-2-.07-2.93-.21-.93-.14-1.84-.34-2.73-.6l-.47,2.65-.75.82.44.95c2.11.61,4.44.91,6.99.91.73,0,1.41-.02,2.04-.06.63-.04,1.22-.11,1.78-.19.71-.1,1.29-.28,1.73-.52.44-.24.87-.56,1.29-.96.4-.4.69-.93.88-1.6.19-.67.29-1.42.29-2.27,0-1.21-.26-2.17-.79-2.87-.53-.7-1.2-1.23-2.03-1.58Z"/><path class="cls-13" d="m118.3,20.9c-.6-.42-1.38-.73-2.35-.91-.97-.18-2.18-.27-3.64-.27-2.89,0-4.99.68-6.3,2.04-1.31,1.36-1.96,3.43-1.96,6.22s.65,4.86,1.95,6.22c1.3,1.36,3.4,2.04,6.31,2.04,2.27,0,4.57-.31,6.91-.93l-.73-4.57-.44-.95-.76.47-.14.86c-1.52.37-3.03.56-4.53.56-.31,0-.62,0-.94-.03-.31-.02-.62-.04-.93-.08v-1.09c1.75,0,3.21-.1,4.39-.3s2.12-.51,2.83-.92c.71-.42,1.22-.95,1.52-1.6.3-.65.45-1.42.45-2.32,0-1.09-.13-2-.38-2.71-.25-.72-.68-1.29-1.27-1.71Zm-4.12,4.64c0,.57-.17.94-.51,1.09-.34.16-.89.23-1.65.23h-1.27v-1.27c0-.57.17-.93.51-1.09.34-.16.89-.23,1.65-.23h1.27v1.27Z"/><path class="cls-13" d="m155.95,19.72c-2.72,0-5.12.32-7.19.96l.52,3.09-.21.42.44.95c1.7-.57,3.71-.86,6.05-.86.23,0,.47,0,.74.03s.57.03.9.05v1.12h-1.25c-5.65,0-8.47,1.87-8.47,5.61,0,.95.13,1.76.39,2.42.26.66.63,1.19,1.12,1.58.48.4,1.08.69,1.78.87.7.18,1.49.27,2.38.27.47,0,.95-.05,1.45-.16s1-.25,1.48-.44.94-.42,1.36-.7.79-.59,1.1-.94l1.77,1.77h3.12v-10.91c0-3.43-2.49-5.14-7.48-5.14Zm1.25,10.86c0,.31-.12.58-.36.81-.28.21-.87.31-1.77.31h-1.3v-1.27c0-.57.17-.93.52-1.09.35-.16.89-.23,1.64-.23h1.27v1.48Z"/><path class="cls-13" d="m183.92,19.72c-2.91,0-5.01.68-6.31,2.04-1.3,1.36-1.95,3.43-1.95,6.22s.67,4.93,2,6.26,3.42,2,6.26,2,5.01-.68,6.31-2.04c1.3-1.36,1.95-3.43,1.95-6.22s-.65-4.86-1.95-6.22c-1.3-1.36-3.4-2.04-6.31-2.04Zm1.56,10.65c0,.57-.17.94-.51,1.09-.34.16-.89.23-1.65.23h-.96v-6.1c0-.57.17-.93.51-1.09.34-.16.89-.23,1.65-.23h.96v6.1Z"/><path class="cls-13" d="m203.48,19.72l-.44-.95-1.22.73.09.65c-1.16.4-2.18.99-3.05,1.79l-1.71-1.74h-3.12v14.06l-.44.58.44.95h6.23v-8.91c.16-.19.38-.36.68-.51s.62-.27.97-.38c.35-.1.71-.19,1.05-.26.35-.07.64-.1.88-.1l-.36-5.9Z"/><path class="cls-13" d="m130.65,18.77l-1.29.69.27.64c-1.21.4-2.27,1.01-3.17,1.83l-1.71-1.74h-3.12v13.57l-.44,1.06.44.95h6.23v-8.91c.16-.19.38-.36.68-.51s.62-.27.97-.38c.35-.1.71-.19,1.05-.26.35-.07.64-.1.88-.1l-.36-5.9-.44-.95Z"/><polygon class="cls-13" points="147.22 19.24 145.71 20.19 141.43 20.19 139.71 30.32 139.4 30.32 137.69 20.19 137.25 19.24 135.43 19.97 135.55 20.19 131.45 20.19 135.35 35.77 143.76 35.77 147.66 20.19 147.22 19.24"/><path class="cls-13" d="m172.7,19.86l.11.33h-.38v-4.05l-.44-.95-1.74.95v.55l-4.05,1.01v2.49h-1.56v2.47l-.44.6.44.95h1.56v8.62c0,.8.19,1.4.57,1.81.38.41.93.74,1.66,1,.87.31,2.72.47,5.56.47l.29-4.57-.44-.95-1.41.4v-6.77h2.16v-4.03l-.44-.95-1.46.62Z"/><path class="cls-13" d="m219.61,19.24l-2.3.72.08.23h-3.58l-1.71,10.13h-.31l-1.71-10.13-.44-.95-2.42.33.57.63h-3.95l3.19,12.81-.15.21.44.95h3.27l.05.18c-.09.17-.18.33-.29.47-.1.14-.22.26-.34.36-.45.4-1.43.77-2.93,1.12l-2.94.57v2.12l-.44.98.44.95h6.05c.81,0,1.53-.08,2.14-.23.62-.16,1.16-.43,1.62-.82.47-.39.88-.91,1.23-1.57s.67-1.5.95-2.52l3.9-15.58-.44-.95Z"/><path class="cls-7" d="m50.68,25.11c0-1.78.15-3.32.45-4.61.3-1.29.81-2.35,1.53-3.18.72-.83,1.67-1.45,2.84-1.84s2.63-.6,4.36-.6,3.21.2,4.38.6c1.17.4,2.11,1.01,2.83,1.84.72.83,1.23,1.89,1.53,3.18.3,1.29.45,2.83.45,4.61s-.14,3.18-.42,4.45c-.28,1.27-.77,2.33-1.47,3.18-.7.85-1.65,1.49-2.83,1.91-1.19.42-2.68.64-4.48.64s-3.29-.21-4.48-.64c-1.19-.42-2.13-1.06-2.83-1.91-.7-.85-1.19-1.91-1.47-3.18-.28-1.27-.42-2.76-.42-4.45Zm6.7-3.25v8.1h2.6c.87,0,1.49-.1,1.86-.3.37-.2.56-.65.56-1.36v-8.1h-2.62c-.83,0-1.44.1-1.82.3-.38.2-.57.65-.57,1.36Z"/><path class="cls-7" d="m70.6,34.04V14.56l6.23-.47v5.17c.76-.33,1.8-.49,3.12-.49,1.25,0,2.29.23,3.14.68.85.45,1.54,1.05,2.06,1.81.53.75.91,1.63,1.14,2.64.23,1,.35,2.05.35,3.14,0,2.93-.68,5.04-2.03,6.33s-3.39,1.93-6.13,1.93-5.37-.42-7.9-1.25Zm6.23-9.56v6.26h.96c.76,0,1.31-.08,1.65-.23.34-.16.51-.52.51-1.09v-6.1h-.96c-.45,0-.81.02-1.09.05s-.52.15-.73.34c-.21.17-.32.43-.34.78Z"/><path class="cls-7" d="m90,19.86c1.33-.73,3.16-1.09,5.48-1.09s4.48.32,6.42.96l-.73,4.23c-.81-.24-1.62-.42-2.42-.52s-1.61-.16-2.44-.16c-.24,0-.54,0-.9.03s-.76.05-1.21.1v.99c.95,0,1.93.05,2.93.14,1,.1,1.92.32,2.74.68.82.36,1.5.88,2.03,1.58.53.7.79,1.66.79,2.87,0,.85-.1,1.61-.29,2.27-.19.67-.48,1.2-.88,1.6-.42.4-.84.72-1.29.96-.44.24-1.02.42-1.73.52-.55.09-1.15.15-1.78.19-.63.04-1.31.06-2.04.06-2.54,0-4.87-.3-6.99-.91l.78-4.42c.88.26,1.79.46,2.73.6.94.14,1.91.21,2.93.21.47,0,.91,0,1.34-.03.42-.02.84-.05,1.23-.1v-.99c-1.66,0-3.05-.11-4.17-.32-1.12-.22-2.02-.55-2.7-1-.68-.45-1.17-1.04-1.45-1.77-.29-.73-.43-1.59-.43-2.6,0-2.01.67-3.38,2.03-4.1Z"/><path class="cls-7" d="m110.31,29.52v1.09c.31.03.62.06.93.08.31.02.62.03.94.03,1.94,0,3.9-.31,5.87-.94l.73,4.57c-2.34.62-4.64.93-6.91.93-2.91,0-5.01-.68-6.31-2.04-1.3-1.36-1.95-3.43-1.95-6.22s.65-4.86,1.96-6.22c1.31-1.36,3.41-2.04,6.3-2.04,1.45,0,2.67.09,3.64.27.97.18,1.75.48,2.35.91s1.02,1,1.27,1.71c.25.72.38,1.62.38,2.71,0,.9-.15,1.68-.45,2.32-.3.65-.81,1.18-1.52,1.6-.71.42-1.65.72-2.83.92s-2.64.3-4.39.3Zm0-4.88v1.27h1.27c.76,0,1.31-.08,1.65-.23.34-.16.51-.52.51-1.09v-1.27h-1.27c-.76,0-1.31.08-1.65.23-.34.16-.51.52-.51,1.09Z"/><path class="cls-7" d="m121.2,34.82v-15.58h3.12l1.71,1.74c1.25-1.14,2.79-1.88,4.62-2.21l.36,5.9c-.24,0-.54.03-.88.1-.35.07-.7.16-1.05.26-.36.1-.68.23-.97.38s-.52.32-.68.51v8.91h-6.23Z"/><path class="cls-7" d="m134.91,34.82l-3.9-15.58h6.23l1.71,10.13h.31l1.71-10.13h6.23l-3.9,15.58h-8.42Z"/><path class="cls-7" d="m155.51,18.77c4.99,0,7.48,1.71,7.48,5.14v10.91h-3.12l-1.77-1.77c-.31.35-.68.66-1.1.94s-.88.51-1.36.7-.98.34-1.48.44-.99.16-1.45.16c-.88,0-1.68-.09-2.38-.27-.7-.18-1.29-.47-1.78-.87-.49-.4-.86-.93-1.12-1.58-.26-.66-.39-1.46-.39-2.42,0-3.74,2.82-5.61,8.47-5.61h1.25v-1.12c-.33-.02-.63-.03-.9-.05s-.52-.03-.74-.03c-2.34,0-4.36.29-6.05.86l-.75-4.47c2.08-.64,4.48-.96,7.19-.96Zm-2.18,10.7v1.27h1.3c.9,0,1.49-.1,1.77-.31.24-.22.36-.49.36-.81v-1.48h-1.27c-.74,0-1.29.08-1.64.23-.35.16-.52.52-.52,1.09Z"/><path class="cls-7" d="m165.77,23.26h-1.56v-4.03h1.56v-2.49l6.23-1.56v4.05h2.16v4.03h-2.16v7.09c.26.05.55.1.86.14.31.04.64.07.99.09l-.29,4.57c-2.84,0-4.69-.16-5.56-.47-.73-.26-1.28-.59-1.66-1-.38-.41-.57-1.01-.57-1.81v-8.62Z"/><path class="cls-7" d="m175.22,27.03c0-2.79.65-4.86,1.95-6.22,1.3-1.36,3.4-2.04,6.31-2.04s5.01.68,6.31,2.04c1.3,1.36,1.95,3.43,1.95,6.22s-.65,4.86-1.95,6.22c-1.3,1.36-3.4,2.04-6.31,2.04s-4.93-.67-6.26-2-2-3.42-2-6.26Zm6.7-2.39v6.1h.96c.76,0,1.31-.08,1.65-.23.34-.16.51-.52.51-1.09v-6.1h-.96c-.76,0-1.31.08-1.65.23-.34.16-.51.52-.51,1.09Z"/><path class="cls-7" d="m193.59,34.82v-15.58h3.12l1.71,1.74c1.25-1.14,2.79-1.88,4.62-2.21l.36,5.9c-.24,0-.54.03-.88.1-.35.07-.7.16-1.05.26-.36.1-.68.23-.97.38s-.52.32-.68.51v8.91h-6.23Z"/><path class="cls-7" d="m210.16,33.21h-3.27l-3.48-13.97h6.23l1.71,10.13h.31l1.71-10.13h6.23l-3.9,15.58c-.28,1.02-.59,1.86-.95,2.52s-.77,1.18-1.23,1.57c-.47.39-1.01.66-1.62.82-.61.16-1.33.23-2.14.23h-6.05v-4.05l2.94-.57c1.51-.35,2.48-.72,2.93-1.12.12-.1.23-.22.34-.36.1-.14.2-.29.29-.47l-.05-.18Z"/></g></svg>